<?xml version="1.0" encoding="UTF-8" standalone="no"?><svg width="32" height="32" viewBox="0 0 32 32" fill="none" xmlns="http://www.w3.org/2000/svg">
<rect width="32" height="32" rx="8" fill="#2A2C3D"/>
<path fill-rule="evenodd" clip-rule="evenodd" d="M14.8741 15.1941C14.8741 15.0174 15.0174 14.8741 15.1941 14.8741L25.9814 14.8741C26.3348 14.8741 26.6214 15.1606 26.6214 15.5141L26.6214 17.1141C26.6214 17.4676 26.3348 17.7541 25.9814 17.7541L21.3357 17.7541C20.7655 17.7541 20.48 18.4435 20.8831 18.8466L24.3466 22.3101C24.5966 22.5601 24.5966 22.9653 24.3465 23.2151C23.9695 23.592 23.5923 23.9687 23.2155 24.3457C22.9654 24.596 22.5598 24.5962 22.3096 24.3461L18.8467 20.8831C18.4435 20.4799 17.7541 20.7655 17.7541 21.3357L17.7541 25.9813C17.7541 26.3348 17.4676 26.6213 17.1141 26.6213L15.5141 26.6213C15.1607 26.6213 14.8741 26.3348 14.8741 25.9813L14.8741 15.1941Z" fill="url(#paint0_linear_1422_1774)"/>
<path fill-rule="evenodd" clip-rule="evenodd" d="M6.01865 15.5259C6.01865 15.1724 6.30519 14.8859 6.65865 14.8859L12.042 14.8859C12.3954 14.8859 12.682 15.1724 12.682 15.5259L12.682 17.1259C12.682 17.4793 12.3954 17.7659 12.042 17.7659L6.65865 17.7659C6.30519 17.7659 6.01865 17.4793 6.01865 17.1259L6.01865 15.5259ZM12.4109 10.3744C12.6608 10.6243 12.6608 11.0296 12.4109 11.2795L11.2795 12.4109C11.0296 12.6608 10.6244 12.6608 10.3744 12.4109L6.45966 8.49611C6.27868 8.31512 6.27857 8.02171 6.45943 7.84059V7.84059L7.71573 6.58433C7.96567 6.3344 8.37089 6.3344 8.62082 6.58433L12.4109 10.3744ZM15.5259 12.6819C15.1724 12.6819 14.8859 12.3954 14.8859 12.0419L14.8859 6.65863C14.8859 6.30517 15.1724 6.01863 15.5259 6.01863L17.1259 6.01863C17.4794 6.01863 17.7659 6.30517 17.7659 6.65863L17.7659 12.0419C17.7659 12.3954 17.4794 12.6819 17.1259 12.6819L15.5259 12.6819Z" fill="white"/>
<rect x="0.285714" y="0.285714" width="31.4286" height="31.4286" rx="7.71429" stroke="white" stroke-opacity="0.05" stroke-width="0.571429" style="mix-blend-mode:lighten"/>
<defs>
<linearGradient id="paint0_linear_1422_1774" x1="15.7333" y1="16" x2="24.2667" y2="24.5333" gradientUnits="userSpaceOnUse">
<stop stop-color="#AAFF00"/>
<stop offset="1" stop-color="#84FF23"/>
</linearGradient>
</defs>
</svg>
